<?xml version="1.0" encoding="iso-8859-1"?>
<!-- Generator: Adobe Illustrator 19.0.0, SVG Export Plug-In . SVG Version: 6.00 Build 0)  -->
<svg version="1.1" id="Capa_1" xmlns="http://www.w3.org/2000/svg" xmlns:xlink="http://www.w3.org/1999/xlink" x="0px" y="0px"
	 viewBox="0 0 512 512" style="enable-background:new 0 0 512 512;" xml:space="preserve">
<path style="fill:#FEB756;" d="M256.011,364.33c-38.187,0-69.256,31.067-69.256,69.255s31.068,69.258,69.256,69.258
	s69.256-31.069,69.256-69.258C325.268,395.398,294.199,364.33,256.011,364.33z"/>
<g>
	<path style="fill:#FE8821;" d="M256.011,364.33v138.514c38.188,0,69.256-31.069,69.256-69.258
		C325.268,395.398,294.199,364.33,256.011,364.33z"/>
	<path style="fill:#FE8821;" d="M348.217,289.112c-7.584-3.33-16.435,0.118-19.764,7.703l-42.989,97.909
		c-3.33,7.585,0.119,16.434,7.704,19.765c1.962,0.861,4.009,1.27,6.022,1.27c5.771,0,11.273-3.351,13.742-8.975l42.988-97.907
		C359.251,301.291,355.802,292.442,348.217,289.112z"/>
</g>
<g>
	<path style="fill:#18A7FC;" d="M464.138,232.059c-6.952-2.26-14.155-3.404-21.411-3.404c-30.088,0-56.556,19.237-65.857,47.869
		c-11.801,36.318,8.145,75.467,44.465,87.269c6.952,2.259,14.157,3.404,21.413,3.404c30.088,0,56.555-19.238,65.856-47.869
		C520.405,283.011,500.458,243.862,464.138,232.059z"/>
	<path style="fill:#18A7FC;" d="M413.091,327.362c-0.823-8.243-8.176-14.26-16.418-13.435l-106.396,10.629
		c-8.243,0.823-14.258,8.173-13.435,16.417c0.772,7.736,7.294,13.509,14.908,13.509c0.497,0,1.002-0.024,1.509-0.074l106.397-10.629
		C407.9,342.955,413.914,335.605,413.091,327.362z"/>
	<path style="fill:#18A7FC;" d="M434.835,235.508l-79.832-71.139c-6.185-5.512-15.666-4.966-21.179,1.219
		c-5.512,6.186-4.965,15.668,1.22,21.179l79.831,71.139c2.86,2.548,6.425,3.801,9.975,3.801c4.128,0,8.24-1.694,11.204-5.021
		C441.566,250.501,441.02,241.02,434.835,235.508z"/>
</g>
<path style="fill:#B2DCFE;" d="M390.25,115.712c-8.089-1.766-16.085,3.367-17.851,11.461l-22.77,104.474
	c-1.763,8.094,3.369,16.086,11.463,17.85c1.076,0.235,2.15,0.348,3.209,0.348c6.9,0,13.111-4.792,14.642-11.81l22.77-104.472
	C403.476,125.468,398.344,117.476,390.25,115.712z"/>
<path style="fill:#86CAFD;" d="M330.13,72.03c-4.179-7.154-13.367-9.562-20.519-5.385l-92.327,53.942
	c-7.152,4.179-9.564,13.366-5.385,20.518c2.79,4.774,7.81,7.436,12.965,7.436c2.571,0,5.176-0.661,7.555-2.051l92.328-53.942
	C331.898,88.369,334.31,79.184,330.13,72.03z"/>
<path style="fill:#B2DCFE;" d="M439.821,67.584c-2.895-18.271-12.73-34.321-27.696-45.195c-11.912-8.655-25.972-13.23-40.661-13.23
	c-22.122,0-43.086,10.674-56.075,28.552c-10.875,14.965-15.268,33.27-12.375,51.543c2.895,18.272,12.729,34.322,27.694,45.196
	c11.913,8.653,25.974,13.229,40.662,13.229c22.123,0,43.086-10.674,56.074-28.551C438.319,104.161,442.714,85.858,439.821,67.584z"
	/>
<path style="fill:#FEDB41;" d="M294.742,120.584L202.42,66.646c-7.153-4.179-16.339-1.769-20.518,5.385
	c-4.179,7.153-1.768,16.339,5.386,20.519l92.323,53.938c2.379,1.39,4.983,2.051,7.553,2.051c5.156,0,10.177-2.662,12.965-7.436
	C304.306,133.949,301.895,124.764,294.742,120.584z"/>
<path style="fill:#FEA832;" d="M162.402,231.648L139.63,127.17c-1.766-8.094-9.756-13.227-17.851-11.461
	c-8.095,1.764-13.226,9.756-11.462,17.85l22.771,104.478c1.53,7.019,7.741,11.81,14.642,11.81c1.059,0,2.133-0.112,3.209-0.348
	C159.035,247.732,164.167,239.741,162.402,231.648z"/>
<path style="fill:#FEDB41;" d="M196.644,37.711c-12.99-17.88-33.953-28.555-56.076-28.555c-14.689,0-28.749,4.576-40.66,13.231
	C84.941,33.259,75.106,49.31,72.211,67.581c-2.895,18.271,1.5,36.576,12.374,51.544c12.989,17.88,33.95,28.552,56.076,28.552
	c14.689,0,28.749-4.575,40.662-13.229C212.216,111.998,219.089,68.602,196.644,37.711z"/>
<g>
	<path style="fill:#FE73B1;" d="M135.16,276.519c-9.306-28.63-35.772-47.867-65.859-47.867c-7.255,0-14.459,1.145-21.409,3.404
		c-17.595,5.717-31.908,17.942-40.308,34.424c-8.398,16.483-9.876,35.249-4.159,52.843c9.302,28.633,35.768,47.872,65.856,47.872
		c7.256,0,14.46-1.145,21.411-3.404c17.593-5.715,31.907-17.941,40.308-34.427C139.398,312.879,140.875,294.112,135.16,276.519z"/>
	<path style="fill:#FE73B1;" d="M178.199,165.586c-5.511-6.185-14.993-6.729-21.177-1.219l-79.828,71.137
		c-6.185,5.512-6.73,14.993-1.219,21.179c2.962,3.325,7.073,5.02,11.203,5.02c3.551,0,7.116-1.254,9.975-3.802l79.827-71.137
		C183.165,181.253,183.71,171.772,178.199,165.586z"/>
</g>
<path style="fill:#FD0F7F;" d="M221.754,324.551l-106.402-10.625c-8.238-0.824-15.593,5.191-16.416,13.436
	c-0.823,8.242,5.192,15.592,13.435,16.416l106.404,10.624c0.507,0.051,1.009,0.075,1.508,0.075c7.614,0,14.136-5.774,14.908-13.511
	C236.013,332.724,229.997,325.373,221.754,324.551z"/>
<path style="fill:#FEB756;" d="M226.558,394.725l-42.985-97.907c-3.329-7.585-12.178-11.033-19.765-7.703
	c-7.585,3.33-11.034,12.179-7.704,19.765l42.985,97.905c2.469,5.624,7.971,8.975,13.742,8.975c2.014,0,4.061-0.408,6.022-1.27
	C226.439,411.158,229.888,402.309,226.558,394.725z"/>
<path style="fill:#18A7FC;" d="M376.87,276.524l131.733,42.803c11.801-36.317-8.148-75.467-44.467-87.268
	C427.818,220.26,388.67,240.206,376.87,276.524z"/>
<path style="fill:#86CAFD;" d="M330.71,134.447l81.415-112.059c-30.893-22.445-74.291-15.572-96.737,15.324
	C292.942,68.605,299.814,112,330.71,134.447z"/>
<path style="fill:#FEA832;" d="M181.321,134.446L99.905,22.387c-30.894,22.444-37.766,65.844-15.32,96.738
	C107.03,150.02,150.425,156.893,181.321,134.446z"/>
<path style="fill:#FD0F7F;" d="M135.158,276.523L3.423,319.326c11.8,36.318,50.951,56.266,87.269,44.464
	C127.011,351.991,146.958,312.844,135.158,276.523z"/>
<g>
</g>
<g>
</g>
<g>
</g>
<g>
</g>
<g>
</g>
<g>
</g>
<g>
</g>
<g>
</g>
<g>
</g>
<g>
</g>
<g>
</g>
<g>
</g>
<g>
</g>
<g>
</g>
<g>
</g>
</svg>
